<?xml version="1.0" standalone="no"?><!DOCTYPE svg PUBLIC "-//W3C//DTD SVG 1.1//EN" "http://www.w3.org/Graphics/SVG/1.1/DTD/svg11.dtd"><svg t="1555557400489" class="icon" style="" viewBox="0 0 1024 1024" version="1.1" xmlns="http://www.w3.org/2000/svg" p-id="5091" xmlns:xlink="http://www.w3.org/1999/xlink" width="64" height="64"><defs><style type="text/css"></style></defs><path d="M508.19072 517.12 217.35424 226.28352c-20.89984-20.89984-20.89984-54.80448 0-75.70432 20.89984-20.91008 54.79424-20.91008 75.70432 0l328.704 328.69376c10.4448 10.45504 15.6672 24.14592 15.6672 37.84704s-5.23264 27.40224-15.6672 37.84704l-328.704 328.69376c-20.91008 20.91008-54.80448 20.91008-75.70432 0-20.89984-20.89984-20.89984-54.79424 0-75.70432L508.19072 517.12zM706.27328 134.90176l0 738.12992c0 5.66272 4.57728 10.24 10.24 10.24l95.56992 0c5.66272 0 10.24-4.57728 10.24-10.24L822.3232 134.90176c0-5.66272-4.57728-10.24-10.24-10.24l-95.56992 0C710.85056 124.66176 706.27328 129.23904 706.27328 134.90176z" p-id="5092" fill="#8a8a8a"></path></svg>