<?xml version="1.0" standalone="no"?><!DOCTYPE svg PUBLIC "-//W3C//DTD SVG 1.1//EN" "http://www.w3.org/Graphics/SVG/1.1/DTD/svg11.dtd"><svg t="1555557356917" class="icon" style="" viewBox="0 0 1024 1024" version="1.1" xmlns="http://www.w3.org/2000/svg" p-id="4770" xmlns:xlink="http://www.w3.org/1999/xlink" width="64" height="64"><defs><style type="text/css"></style></defs><path d="M806.64576 807.95648c20.89984 20.91008 20.89984 54.80448 0 75.70432-20.89984 20.91008-54.79424 20.91008-75.70432 0l-328.704-328.69376c-10.4448-10.45504-15.6672-24.14592-15.6672-37.84704s5.23264-27.40224 15.6672-37.84704l328.704-328.69376c20.91008-20.91008 54.80448-20.91008 75.70432 0 20.89984 20.89984 20.89984 54.80448 0 75.70432L515.80928 517.12 806.64576 807.95648zM307.48672 124.66176l-95.56992 0c-5.66272 0-10.24 4.57728-10.24 10.24l0 738.12992c0 5.66272 4.57728 10.24 10.24 10.24l95.56992 0c5.66272 0 10.24-4.57728 10.24-10.24L317.72672 134.90176C317.72672 129.23904 313.14944 124.66176 307.48672 124.66176z" p-id="4771" fill="#515151"></path></svg>