<?xml version="1.0" standalone="no"?><!DOCTYPE svg PUBLIC "-//W3C//DTD SVG 1.1//EN" "http://www.w3.org/Graphics/SVG/1.1/DTD/svg11.dtd"><svg t="1553080569237" class="icon" style="" viewBox="0 0 1024 1024" version="1.1" xmlns="http://www.w3.org/2000/svg" p-id="8497" xmlns:xlink="http://www.w3.org/1999/xlink" width="128" height="128"><defs><style type="text/css"></style></defs><path d="M920.265696 454.78012l-88.312242 88.343273c-9.060848 9.091879-20.976485 13.653333-32.892121 13.653333-11.915636 0-23.831273-4.530424-32.923152-13.653333-8.874667-8.874667-13.436121-20.417939-13.653333-32.054303-0.217212-12.163879 4.344242-24.451879 13.653333-33.76097l88.312242-88.312242C883.743029 359.641211 899.878787 320.698181 899.878787 279.241696 899.878787 193.722181 830.277817 124.121212 744.727272 124.121212c-41.425455 0-80.399515 16.135758-109.692121 45.459394l-186.181817 186.181817C419.529697 385.055029 403.393939 423.967029 403.393939 465.423514c0 52.999758 26.779152 101.841455 71.68 130.637576 10.829576 6.888727 17.780364 17.563152 20.324848 29.199515 2.575515 11.636364 0.651636 24.234667-6.268121 35.095273-6.919758 10.767515-17.532121 17.749333-29.106424 20.293818-11.698424 2.606545-24.358788 0.713697-35.219394-6.237091-71.71103-46.017939-114.532848-124.121212-114.532848-208.98909 0-66.311758 25.817212-128.651636 72.704-175.507393l186.181817-186.150787C616.075636 56.847515 678.415515 31.030303 744.727272 31.030303c136.874667 0 248.242423 111.367758 248.242423 248.211393C992.969696 345.553454 967.152484 407.924363 920.265696 454.78012zM248.242425 930.909088c41.425455 0 80.399515-16.135758 109.692121-45.459394l186.181817-186.181817C573.44 669.975271 589.575758 631.03224 589.575758 589.575756c0-52.999758-26.779152-101.841455-71.68-130.606545-10.829576-6.950788-17.780364-17.594182-20.324848-29.230545-2.575515-11.636364-0.651636-24.234667 6.268121-35.064242 6.919758-10.767515 17.532121-17.749333 29.106424-20.324848 11.698424-2.575515 24.358788-0.713697 35.219394 6.268121 71.71103 45.986909 114.501818 124.121212 114.501818 208.98909 0 66.311758-25.817212 128.651636-72.704 175.507393l-186.181817 186.181817C376.894061 998.182785 314.554183 1023.999997 248.242425 1023.999997c-136.874667 0-248.242423-111.367758-248.242423-248.242423 0-66.311758 25.817212-128.682667 72.704-175.507393l88.312242-88.343273c9.060848-9.091879 20.976485-13.622303 32.892121-13.622303 11.915636 0 23.831273 4.530424 32.892121 13.622303 8.874667 8.874667 13.436121 20.44897 13.653333 32.054303 0.217212 12.194909-4.344242 24.451879-13.653333 33.76097l-88.312242 88.343273C109.226668 695.358059 93.09091 734.301089 93.09091 775.757574 93.09091 861.308118 162.69188 930.909088 248.242425 930.909088z" p-id="8498" fill="#31a720"></path></svg>