<?xml version="1.0" standalone="no"?><!DOCTYPE svg PUBLIC "-//W3C//DTD SVG 1.1//EN" "http://www.w3.org/Graphics/SVG/1.1/DTD/svg11.dtd"><svg t="1553080283543" class="icon" style="" viewBox="0 0 1024 1024" version="1.1" xmlns="http://www.w3.org/2000/svg" p-id="24907" xmlns:xlink="http://www.w3.org/1999/xlink" width="128" height="128"><defs><style type="text/css"></style></defs><path d="M512.00512 70.0672c-246.5024 0-447.05792 200.49408-447.05792 447.11936 0 246.5024 200.55552 447.05792 447.05792 447.05792 246.56384 0 447.11936-200.49408 447.11936-447.05792 0-246.6304-200.61696-447.11936-447.11936-447.11936z m0 832.27136c-212.4288 0-385.21344-172.8512-385.21344-385.21344 0-212.49024 172.78976-385.27488 385.21344-385.27488 212.49024 0 385.27488 172.8512 385.27488 385.27488s-172.84608 385.21344-385.27488 385.21344zM619.85792 284.03712l-70.8096 130.36544c-18.86208 35.37408-30.42816 58.93632-34.63168 70.44096h-1.23904c-12.43136-28.20096-47.55456-95.11424-105.37984-200.80128h-66.47808l123.74528 212.61312h-101.48352v47.12448h118.8608v64.50176h-118.8608v47.80544h118.8608v94.18752h59.12064V656.08704h114.71872v-47.80544h-114.71872V543.77984h114.71872v-47.12448h-98.45248l124.98432-212.61312-62.95552-0.00512z" p-id="24908" fill="#31a720"></path></svg>