<?xml version="1.0" standalone="no"?><!DOCTYPE svg PUBLIC "-//W3C//DTD SVG 1.1//EN" "http://www.w3.org/Graphics/SVG/1.1/DTD/svg11.dtd"><svg t="1557195670610" class="icon" style="" viewBox="0 0 1024 1024" version="1.1" xmlns="http://www.w3.org/2000/svg" p-id="5554" xmlns:xlink="http://www.w3.org/1999/xlink" width="64" height="64"><defs><style type="text/css"></style></defs><path d="M376.32017 256.978879h246.962891c76.426144 0 134.722392-165.729073 134.722391-165.729073 0-49.633218-4.971514-87.183251-89.830287-89.825168-84.828054-2.672637-105.154429 59.320246-166.123313 59.320246-62.489522 0-93.747083-48.737219-170.644266-59.320246-76.871584-10.639347-89.804688 40.19707-89.804688 89.825168-0.00512 0.00512 58.265527 165.729073 134.717272 165.729073z" fill="#00cc66" p-id="5555"></path><path d="M636.764004 308.209535H376.32017c-288.414359 0-359.244351 566.609212-359.244351 566.609211C17.075819 949.248093 77.394463 1024 151.79309 1024h709.472393c74.398627 0 134.717272-74.751907 134.717272-149.181254-0.00512 0-70.855591-566.609212-359.218751-566.609211z m29.567963 435.465695c17.377258 0 31.457241 14.105582 31.457241 31.477721s-14.079982 31.482841-31.457241 31.482841H538.623967v82.590616c0 17.372138-14.079982 31.477721-31.431641 31.477721a31.477721 31.477721 0 0 1-31.457241-31.477721v-82.590616H347.202766c-17.377258 0-31.457241-14.110702-31.457241-31.482841s14.079982-31.477721 31.457241-31.477721h128.532319v-39.94619H347.202766a31.452121 31.452121 0 0 1-31.457241-31.46236c0-17.377258 14.079982-31.508441 31.457241-31.508441h86.886291L345.134289 482.673317a31.482841 31.482841 0 0 1 11.509745-42.992587 31.457241 31.457241 0 0 1 42.966986 11.484146l107.105147 189.593363h5.416953l107.105146-189.593363a31.426521 31.426521 0 0 1 42.941386-11.484146 31.467481 31.467481 0 0 1 11.540466 42.992587l-88.959889 158.084922h81.571738c17.377258 0 31.462361 14.131182 31.462361 31.508441a31.462361 31.462361 0 0 1-31.462361 31.46236H538.623967v39.94619h127.708z" fill="#00cc66" p-id="5556"></path></svg>