<?xml version="1.0" standalone="no"?><!DOCTYPE svg PUBLIC "-//W3C//DTD SVG 1.1//EN" "http://www.w3.org/Graphics/SVG/1.1/DTD/svg11.dtd"><svg t="1554193556062" class="icon" style="" viewBox="0 0 1024 1024" version="1.1" xmlns="http://www.w3.org/2000/svg" p-id="1368" xmlns:xlink="http://www.w3.org/1999/xlink" width="128" height="128"><defs><style type="text/css"></style></defs><path d="M512 512m-512 0a512 512 0 1 0 1024 0 512 512 0 1 0-1024 0Z" fill="#F9CA02" p-id="1369"></path><path d="M512 512m-426.666667 0a426.666667 426.666667 0 1 0 853.333334 0 426.666667 426.666667 0 1 0-853.333334 0Z" fill="#FCDF67" p-id="1370"></path><path d="M467.2 644.266667h-119.466667v-44.8h119.466667v-40.533334h-119.466667v-44.8H448l-145.066667-228.266666h106.666667l55.466667 110.933333c23.466667 46.933333 29.866667 64 46.933333 96h2.133333c17.066667-34.133333 25.6-51.2 46.933334-96l55.466666-110.933333h104.533334L576 514.133333h100.266667v44.8h-119.466667v40.533334h119.466667v44.8h-119.466667v96h-89.6v-96z" fill="#F9CA02" p-id="1371"></path></svg>