<?xml version="1.0" standalone="no"?><!DOCTYPE svg PUBLIC "-//W3C//DTD SVG 1.1//EN" "http://www.w3.org/Graphics/SVG/1.1/DTD/svg11.dtd"><svg t="1557567068607" class="icon" style="" viewBox="0 0 1024 1024" version="1.1" xmlns="http://www.w3.org/2000/svg" p-id="1426" xmlns:xlink="http://www.w3.org/1999/xlink" width="100" height="100"><defs><style type="text/css"></style></defs><path d="M478.2 179.2H216c-9 0-16.3 7.3-16.3 16.3V832c0 9 7.3 16.3 16.3 16.3h262.2c9 0 16.3-7.3 16.3-16.3V195.5c0-9-7.3-16.3-16.3-16.3z m-98.3 118.6c0 2.3-1.9 4.2-4.2 4.2h-57.3c-2.3 0-4.2-1.9-4.2-4.2v-2c0-2.3 1.9-4.2 4.2-4.2h57.3c2.3 0 4.2 1.9 4.2 4.2v2z m0-30.5c0 2.3-1.9 4.2-4.2 4.2h-57.3c-2.3 0-4.2-1.9-4.2-4.2v-2c0-2.3 1.9-4.2 4.2-4.2h57.3c2.3 0 4.2 1.9 4.2 4.2v2z m0-30.5c0 2.3-1.9 4.2-4.2 4.2h-57.3c-2.3 0-4.2-1.9-4.2-4.2v-2c0-2.3 1.9-4.2 4.2-4.2h57.3c2.3 0 4.2 1.9 4.2 4.2v2z m70.4 316.1c0 13.6-11 24.6-24.6 24.6-13.6 0-24.6-11-24.6-24.6v-78.3c0-13.6 11-24.6 24.6-24.6 13.6 0 24.6 11 24.6 24.6v78.3zM805.8 179.2H542.4c-8.7 0-15.7 7-15.7 15.7v637.7c0 8.7 7 15.7 15.7 15.7h94.9c1.7-6.7 4.6-13.1 9.6-18.1l88.1-88.1c-6.8-36.8 4.6-75.4 31.6-102.5 15.3-15.3 34.3-25.5 54.9-30.4V194.9c0-8.7-7-15.7-15.7-15.7z m-98.9 118.6c0 2.3-1.9 4.2-4.2 4.2h-57.3c-2.3 0-4.2-1.9-4.2-4.2v-2c0-2.3 1.9-4.2 4.2-4.2h57.3c2.3 0 4.2 1.9 4.2 4.2v2z m0-30.5c0 2.3-1.9 4.2-4.2 4.2h-57.3c-2.3 0-4.2-1.9-4.2-4.2v-2c0-2.3 1.9-4.2 4.2-4.2h57.3c2.3 0 4.2 1.9 4.2 4.2v2z m0-30.5c0 2.3-1.9 4.2-4.2 4.2h-57.3c-2.3 0-4.2-1.9-4.2-4.2v-2c0-2.3 1.9-4.2 4.2-4.2h57.3c2.3 0 4.2 1.9 4.2 4.2v2z m70.4 316.1c0 13.6-11 24.6-24.6 24.6-13.6 0-24.6-11-24.6-24.6v-78.3c0-13.6 11-24.6 24.6-24.6 13.6 0 24.6 11 24.6 24.6v78.3zM902.1 775c29.7-29.7 29.7-77.9 0-107.7-29.7-29.7-77.9-29.7-107.7 0-23.2 23.2-28.1 57.7-15 85.8L674.6 858l2.9 33.9 33.9 2.9L816.2 790c28.2 13.1 62.6 8.3 85.9-15z m-76.4-31.2c-12.5-12.5-12.5-32.7 0-45.2s32.7-12.5 45.2 0 12.5 32.7 0 45.2c-12.6 12.5-32.8 12.5-45.2 0z" fill="#13227a" p-id="1427"></path></svg>