<?xml version="1.0" standalone="no"?><!DOCTYPE svg PUBLIC "-//W3C//DTD SVG 1.1//EN" "http://www.w3.org/Graphics/SVG/1.1/DTD/svg11.dtd"><svg t="1556962219982" class="icon" style="" viewBox="0 0 1024 1024" version="1.1" xmlns="http://www.w3.org/2000/svg" p-id="16340" xmlns:xlink="http://www.w3.org/1999/xlink" width="64" height="64"><defs><style type="text/css"></style></defs><path d="M290.77085 474.977072h444.877131v51.1699H290.77085z m0 221.535568h272.103469v50.567901H290.77085z m541.798942 323.273368H190.839045a87.28983 87.28983 0 0 1-38.527924-8.427983 79.463845 79.463845 0 0 1-31.905938-21.671958 80.065844 80.065844 0 0 1-21.069959-31.905938 120.399765 120.399765 0 0 1-8.427984-37.925926V251.635509a80.065844 80.065844 0 0 1 8.427984-38.527925A84.279835 84.279835 0 0 1 120.405183 180.599647a84.279835 84.279835 0 0 1 31.905938-21.069959 124.011758 124.011758 0 0 1 38.527924-9.029982h97.52381v49.363904H190.839045a48.159906 48.159906 0 0 0-49.363903 48.761904v668.218695a48.761905 48.761905 0 0 0 49.363903 49.363904h642.332746a48.761905 48.761905 0 0 0 49.363903-49.363904V251.635509a48.761905 48.761905 0 0 0-49.363903-49.363904h-97.52381v-48.761905h97.52381a87.28983 87.28983 0 0 1 38.527924 8.427984 84.279835 84.279835 0 0 1 31.905938 21.069959 86.687831 86.687831 0 0 1 21.069959 32.507936 124.613757 124.613757 0 0 1 9.029982 37.925926v668.218695a81.87184 81.87184 0 0 1-9.029982 38.527925 95.115814 95.115814 0 0 1-52.975897 52.975896 206.485597 206.485597 0 0 1-38.527924 6.621987zM759.125935 300.999412H266.690897V140.867725a60.199882 60.199882 0 0 1 60.199883-60.199883h63.811875a136.653733 136.653733 0 0 1 240.79953 0h63.811875a60.199882 60.199882 0 0 1 60.199882 60.199883z m-444.877131-49.363903h395.513228V140.867725a13.243974 13.243974 0 0 0-12.641976-12.641975H598.994248l-6.019988-17.457966A87.28983 87.28983 0 0 0 511.704419 53.577895a85.483833 85.483833 0 0 0-80.667843 60.199883l-6.019988 17.457966H326.89078a13.243974 13.243974 0 0 0-12.641976 12.641975z" fill="#31A720" p-id="16341"></path><path d="M833.171791 1023.398001H190.839045a88.493827 88.493827 0 0 1-40.333921-9.029982 80.667842 80.667842 0 0 1-33.109935-21.671958 84.279835 84.279835 0 0 1-22.273957-33.711934 120.399765 120.399765 0 0 1-9.029982-39.129924V251.635509a88.493827 88.493827 0 0 1 9.029982-40.333922A82.473839 82.473839 0 0 1 117.395189 180.599647a88.493827 88.493827 0 0 1 33.711934-22.875955 126.419753 126.419753 0 0 1 39.731922-8.427984H260.670909v-6.019988A66.219871 66.219871 0 0 1 326.89078 74.647854h60.199882A142.071723 142.071723 0 0 1 512.306417 0a143.27572 143.27572 0 0 1 124.011758 74.647854h60.199883a66.219871 66.219871 0 0 1 66.21987 66.219871v7.825985h69.831864a88.493827 88.493827 0 0 1 40.333921 9.029982 89.095826 89.095826 0 0 1 33.109935 22.273956 84.279835 84.279835 0 0 1 22.273957 33.711935 120.399765 120.399765 0 0 1 9.029982 39.731922v668.218695A88.493827 88.493827 0 0 1 928.889604 963.198119a82.473839 82.473839 0 0 1-22.273957 33.109935 80.065844 80.065844 0 0 1-33.711934 22.273957l-13.243974 3.009994a127.623751 127.623751 0 0 1-26.487948 1.805996zM190.839045 155.917695a120.399765 120.399765 0 0 0-36.721928 8.427984 74.045855 74.045855 0 0 0-30.70194 19.865961 76.453851 76.453851 0 0 0-19.865961 30.099941 78.861846 78.861846 0 0 0-8.427984 37.323928v668.218694a116.185773 116.185773 0 0 0 8.427984 36.721929 72.841858 72.841858 0 0 0 19.865961 30.099941 86.085832 86.085832 0 0 0 30.099941 20.46796 86.687831 86.687831 0 0 0 37.323927 7.825985h642.332746a116.185773 116.185773 0 0 0 24.681952-3.611993h13.243974a79.463845 79.463845 0 0 0 29.497942-19.865962 74.045855 74.045855 0 0 0 19.865961-30.70194 75.249853 75.249853 0 0 0 8.427984-36.721928V253.441505a120.399765 120.399765 0 0 0-8.427984-36.721928 72.841858 72.841858 0 0 0-19.865961-30.099941 86.085832 86.085832 0 0 0-30.099941-20.467961 84.881834 84.881834 0 0 0-37.323927-7.825984h-69.831864v39.731922h69.831864a52.975897 52.975897 0 0 1 53.577895 53.577896v665.810699a52.975897 52.975897 0 0 1-53.577895 53.577895H190.839045a52.975897 52.975897 0 0 1-53.577895-53.577895V249.227513a52.975897 52.975897 0 0 1 53.577895-53.577895H260.670909v-39.731923z m0 48.761905a43.945914 43.945914 0 0 0-44.547913 44.547913v668.218695a43.945914 43.945914 0 0 0 44.547913 44.547913h642.332746a43.945914 43.945914 0 0 0 44.547913-44.547913V251.635509a43.945914 43.945914 0 0 0-44.547913-44.547913h-69.831864v97.523809H260.670909V204.6796z m78.861846 90.901823h484.609054V207.087596h-23.477954v-60.199883h23.477954v-6.019988a60.199882 60.199882 0 0 0-57.189889-57.189888H627.890192a131.235744 131.235744 0 0 0-234.177543 0H326.89078a60.199882 60.199882 0 0 0-60.199883 60.199882v6.019988h23.477954v60.199883h-20.46796z m470.161082-97.52381h14.447972v-39.731922h-14.447972z m-470.161082 0h14.447972v-42.139918h-14.447972z m300.999412 556.246914H285.954859v-60.199883H567.690309z m-272.705467-9.029983h260.665491v-42.139917H294.984842z m444.877131-212.505585H285.954859v-60.199882h453.907114z m-447.887125-11.437977h435.847149V481.599059H294.984842z m421.399177-265.481482H309.432814V140.867725A18.059965 18.059965 0 0 1 326.89078 123.409759h94.513815l5.417989-13.845973a89.697825 89.697825 0 0 1 85.483833-60.199882 92.707819 92.707819 0 0 1 84.881835 60.199882l5.417989 13.845973h94.513815a18.059965 18.059965 0 0 1 17.457966 17.457966zM318.462796 246.819518h387.085244V140.867725a9.631981 9.631981 0 0 0-8.427984-8.427984H595.984254l-7.223986-19.865961A83.677837 83.677837 0 0 0 512.306417 60.199882a81.269841 81.269841 0 0 0-77.055849 54.781893l-7.223986 19.865962H326.89078a9.631981 9.631981 0 0 0-8.427984 8.427983z" fill="#31A720" p-id="16342"></path></svg>