<?xml version="1.0" standalone="no"?><!DOCTYPE svg PUBLIC "-//W3C//DTD SVG 1.1//EN" "http://www.w3.org/Graphics/SVG/1.1/DTD/svg11.dtd"><svg t="1556175277630" class="icon" style="" viewBox="0 0 1024 1024" version="1.1" xmlns="http://www.w3.org/2000/svg" p-id="1502" xmlns:xlink="http://www.w3.org/1999/xlink" width="200" height="200"><defs><style type="text/css"></style></defs><path d="M270.506667 234.666667a21.333333 21.333333 0 0 0 13.226666-4.693334 366.933333 366.933333 0 0 1 42.666667-30.293333 21.333333 21.333333 0 0 0-21.76-36.693333A410.453333 410.453333 0 0 0 256 196.693333a21.333333 21.333333 0 0 0 13.226667 37.973334z" fill="#7AD644" p-id="1503"></path><path d="M512 106.666667a404.053333 404.053333 0 0 0-124.586667 21.333333 21.333333 21.333333 0 0 0 13.226667 42.666667 362.666667 362.666667 0 1 1-192 146.346666 21.333333 21.333333 0 0 0-35.84-23.466666A405.333333 405.333333 0 1 0 512 106.666667z" fill="#7AD644" p-id="1504"></path><path d="M384 544.426667a21.333333 21.333333 0 0 0 0 42.666666h106.666667v85.333334a21.333333 21.333333 0 0 0 42.666666 0v-85.333334H640a21.333333 21.333333 0 0 0 0-42.666666h-106.666667v-64H640a21.333333 21.333333 0 0 0 0-42.666667H384a21.333333 21.333333 0 0 0 0 42.666667h106.666667v64zM578.986667 411.733333l45.226666-45.226666a21.333333 21.333333 0 0 0-30.293333-30.293334l-44.8 45.226667a21.333333 21.333333 0 0 0 30.293333 30.293333zM474.88 411.733333a21.333333 21.333333 0 0 0 0-30.293333l-45.226667-45.226667a21.333333 21.333333 0 0 0-30.293333 30.293334l45.226667 45.226666a21.333333 21.333333 0 0 0 30.293333 0z" fill="#7AD644" p-id="1505"></path></svg>