<?xml version="1.0" standalone="no"?><!DOCTYPE svg PUBLIC "-//W3C//DTD SVG 1.1//EN" "http://www.w3.org/Graphics/SVG/1.1/DTD/svg11.dtd"><svg t="1554963851885" class="icon" style="" viewBox="0 0 1024 1024" version="1.1" xmlns="http://www.w3.org/2000/svg" p-id="765" xmlns:xlink="http://www.w3.org/1999/xlink" width="200" height="200"><defs><style type="text/css"></style></defs><path d="M830.138903 226.248026H198.977516c-68.969321 0-125.147597 56.178275-125.147597 125.147597v384.24303c0 68.969321 56.178275 125.147597 125.147597 125.147597h631.161387c68.969321 0 125.147597-56.178275 125.147596-125.147597V351.395623c0-68.969321-56.178275-125.147597-125.147596-125.147597z m67.025082 184.907365H131.952433v-59.759768c0-36.940542 30.084541-67.025082 66.922754-67.025082h631.161387c36.940542 0 66.922754 30.084541 66.922754 67.025082V411.155391z m-765.211552 58.224843h765.109224v266.258419c0 36.940542-30.084541 66.922754-66.922754 66.922754H198.977516c-36.940542 0-66.922754-30.084541-66.922754-66.922754V469.380234z" p-id="766" fill="#31A720"></path><path d="M733.336265 777.490956h74.802038c33.973019 0 61.49935-27.62866 61.499351-61.49935v-69.173978c0-10.744479-8.80024-19.544719-19.544719-19.544719-10.744479 0-19.544719 8.80024-19.544719 19.544719v69.173978c0 12.381733-10.02818 22.409913-22.409913 22.409913h-74.802038c-10.744479 0-19.544719 8.80024-19.544719 19.544719s8.80024 19.544719 19.544719 19.544718zM656.692315 777.490956h18.316779c10.744479 0 19.544719-8.80024 19.544718-19.544718s-8.80024-19.544719-19.544718-19.544719h-18.316779c-10.744479 0-19.544719 8.80024-19.544718 19.544719s8.80024 19.544719 19.544718 19.544718z" p-id="767" fill="#31A720"></path></svg>