<?xml version="1.0" standalone="no"?><!DOCTYPE svg PUBLIC "-//W3C//DTD SVG 1.1//EN" "http://www.w3.org/Graphics/SVG/1.1/DTD/svg11.dtd"><svg t="1556961845497" class="icon" style="" viewBox="0 0 1024 1024" version="1.1" xmlns="http://www.w3.org/2000/svg" p-id="6586" xmlns:xlink="http://www.w3.org/1999/xlink" width="64" height="64"><defs><style type="text/css"></style></defs><path d="M948.270928 125.444595c-8.949357-5.442315-17.970391-6.650581-29.99673-1.853357-34.23078 17.079551-77.154928 26.551125-120.913599 26.551126a314.563765 314.563765 0 0 1-259.280493-136.45722c-11.202056-15.221075-38.070607-15.543621-49.897274 0.255989a314.45113 314.45113 0 0 1-259.096181 136.20635 300.504877 300.504877 0 0 1-125.070852-26.551125 29.694664 29.694664 0 0 0-29.305561 2.303896 32.776765 32.776765 0 0 0-13.500832 25.583489V368.930598c0 266.192181 162.301816 513.067472 423.31791 644.271808l12.917179 7.039683c3.128179 1.530811 7.418546 3.711833 13.761941 3.711833 4.858661 0 8.43738-1.351619 11.626996-2.43189l16.070957-8.196752C800.166233 880.518457 962.539726 633.581729 962.539726 368.925478V151.478623a32.935478 32.935478 0 0 0-14.268798-26.034028z m-47.659935 69.669825v173.816178c0 242.390372-149.251524 468.67395-389.460875 590.66782C270.858851 837.404877 121.679004 611.198096 121.679004 368.930598v-174.072167a371.925663 371.925663 0 0 0 107.407647 15.738172 377.455015 377.455015 0 0 0 283.466284-130.88691 377.874836 377.874836 0 0 0 283.466284 130.88691c35.945902 0 71.77405-5.309201 104.591774-15.482183z" fill="#31A720" p-id="6587"></path><path d="M647.986201 573.813538h-100.367964v-36.65755c13.239724 0.45054 40.420581 0.757726 97.746642 0.757726a34.353654 34.353654 0 1 0 0-68.702189H544.868921l111.186037-111.564899a33.595928 33.595928 0 0 0 0.061437-47.987601 34.348534 34.348534 0 0 0-47.905684 0l-96.354065 96.348945-96.471818-96.410382a34.686439 34.686439 0 0 0-47.987601 0 33.739282 33.739282 0 0 0 0 47.977361l110.295197 110.295197H378.338175a34.415091 34.415091 0 0 0 0 68.773865h100.506197v37.225845H378.338175c-19.250334 0-34.348534 15.036763-34.348535 34.287097s15.098201 34.358774 34.348535 34.358774h100.506197v55.011924c0 19.066022 15.359309 34.548205 34.297337 34.548206a34.553325 34.553325 0 0 0 34.420211-34.548206v-55.011924h100.367963c19.32713 0 34.420211-15.098201 34.420211-34.358774-0.015359-19.255454-15.047003-34.343415-34.363893-34.343415z" fill="#31A720" p-id="6588"></path></svg>