<?xml version="1.0" standalone="no"?><!DOCTYPE svg PUBLIC "-//W3C//DTD SVG 1.1//EN" "http://www.w3.org/Graphics/SVG/1.1/DTD/svg11.dtd"><svg t="1553081496016" class="icon" style="" viewBox="0 0 1024 1024" version="1.1" xmlns="http://www.w3.org/2000/svg" p-id="5509" xmlns:xlink="http://www.w3.org/1999/xlink" width="128" height="128"><defs><style type="text/css"></style></defs><path d="M41.6 1020.8c-22.4 0-35.2-12.8-35.2-28.8C6.4 739.2 96 608 288 524.8l3.2 3.2 0 0c-60.8-60.8-89.6-134.4-89.6-217.6 0-169.6 134.4-310.4 307.2-310.4 169.6 0 310.4 134.4 310.4 307.2 0 41.6-9.6 86.4-25.6 121.6-12.8 35.2-35.2 64-64 92.8l-3.2 3.2 3.2 3.2c16 6.4 28.8 12.8 41.6 19.2 6.4 3.2 12.8 6.4 16 9.6 3.2 3.2 12.8 9.6 12.8 19.2 0 6.4 0 12.8-3.2 22.4-6.4 9.6-12.8 16-28.8 19.2l0 0c-3.2 0-9.6-3.2-16-6.4-25.6-12.8-51.2-28.8-86.4-41.6-51.2 28.8-105.6 41.6-160 41.6-54.4 0-96-12.8-147.2-38.4-217.6 76.8-275.2 224-272 406.4 0 32-22.4 38.4-44.8 38.4L41.6 1017.6zM502.4 67.2C368 67.2 256 179.2 256 310.4c0 134.4 108.8 243.2 246.4 243.2 64 0 128-25.6 169.6-67.2 25.6-25.6 41.6-51.2 54.4-76.8 12.8-28.8 22.4-60.8 22.4-99.2C748.8 179.2 636.8 67.2 502.4 67.2L502.4 67.2zM502.4 67.2" p-id="5510" fill="#31a720"></path><path d="M832 1024c-16 0-35.2-16-35.2-35.2l0-115.2-115.2 0c-16 0-35.2-16-35.2-35.2 0-16 16-35.2 35.2-35.2L800 803.2l0-115.2c0-16 16-35.2 35.2-35.2 16 0 35.2 16 35.2 35.2l0 118.4 115.2 0c16 0 35.2 16 35.2 35.2 0 16-16 35.2-35.2 35.2l-115.2 0 0 115.2C867.2 1011.2 851.2 1024 832 1024L832 1024zM832 1024" p-id="5511" fill="#31a720"></path></svg>