<?xml version="1.0" standalone="no"?><!DOCTYPE svg PUBLIC "-//W3C//DTD SVG 1.1//EN" "http://www.w3.org/Graphics/SVG/1.1/DTD/svg11.dtd"><svg t="1557038233182" class="icon" style="" viewBox="0 0 1024 1024" version="1.1" xmlns="http://www.w3.org/2000/svg" p-id="5954" xmlns:xlink="http://www.w3.org/1999/xlink" width="64" height="64"><defs><style type="text/css"></style></defs><path d="M512 0C229.76 0 0 229.632 0 512c0 282.24 229.76 512 512 512s512-229.76 512-512c0-282.368-229.76-512-512-512z m0 969.024C259.968 969.024 54.976 763.968 54.976 512A457.6 457.6 0 0 1 512 54.912 457.6 457.6 0 0 1 969.024 512c0 251.968-204.992 457.024-457.024 457.024zM635.84 244.16l-81.28 149.824c-21.76 40.576-34.944 67.584-39.808 80.96h-1.408c-14.272-32.512-54.592-109.44-121.024-230.784H315.84l142.208 244.288H341.44v54.016H478.08v74.368H341.44v54.656H478.08v108.288h67.84v-108.288h131.84v-54.656H545.92V542.464h131.84v-54.016H564.608l143.616-244.288h-72.32z" fill="#00cc66" p-id="5955"></path></svg>