<?xml version="1.0" standalone="no"?><!DOCTYPE svg PUBLIC "-//W3C//DTD SVG 1.1//EN" "http://www.w3.org/Graphics/SVG/1.1/DTD/svg11.dtd"><svg t="1557490810589" class="icon" style="" viewBox="0 0 1024 1024" version="1.1" xmlns="http://www.w3.org/2000/svg" p-id="13608" xmlns:xlink="http://www.w3.org/1999/xlink" width="64" height="64"><defs><style type="text/css"></style></defs><path d="M877.9776 1.0496h-598.912a23.8592 23.8592 0 0 0-23.9488 23.7568v355.2768h32.9472a70.784 70.784 0 0 1-15.2832-44.1088 70.976 70.976 0 0 1 30.2592-58.2912V48.576h550.9888v17.0752L602.4832 246.8096v775.7312l252.9152-182.144a23.8976 23.8976 0 0 0 22.592 16.1536 23.8592 23.8592 0 0 0 23.9488-23.7568V24.8192A23.872 23.872 0 0 0 877.9776 1.0496zM697.5104 652.7488c-11.3024 0-20.7104-13.8496-23.1424-32.3712h-26.9696v-20.7872h27.3536c2.8672-17.3952 11.904-30.1952 22.7456-30.1952 13.12 0 23.7696 18.6624 23.7696 41.6896 0 23.0144-10.624 41.664-23.7568 41.664z m-403.5328-34.3552c2.816 2.7776 5.8752 5.248 9.0368 7.5008v206.8864a23.8592 23.8592 0 0 1-23.9488 23.7568 23.8592 23.8592 0 0 1-23.9488-23.7568V523.5072h32.9472a71.4624 71.4624 0 0 0 5.9136 94.8864z m171.3408-188.6336a24.0384 24.0384 0 0 1 0 34.2144l-116.7488 115.8272a24.512 24.512 0 0 1-34.4832 0 24.064 24.064 0 0 1 0-34.2016l75.1488-74.5472H145.9712c-13.4656 0-24.3712-10.8288-24.3712-24.1792s10.8928-24.1792 24.384-24.1792h243.2512l-75.1488-74.5472a24.0384 24.0384 0 0 1 0-34.1888 24.5248 24.5248 0 0 1 34.4832 0l116.7488 115.8016z m0 0" p-id="13609" fill="#FFCA26"></path></svg>