<?xml version="1.0" standalone="no"?><!DOCTYPE svg PUBLIC "-//W3C//DTD SVG 1.1//EN" "http://www.w3.org/Graphics/SVG/1.1/DTD/svg11.dtd"><svg t="1556968066716" class="icon" style="" viewBox="0 0 1024 1024" version="1.1" xmlns="http://www.w3.org/2000/svg" p-id="56839" xmlns:xlink="http://www.w3.org/1999/xlink" width="64" height="64"><defs><style type="text/css"></style></defs><path d="M775.296 1024H248.64A120.768 120.768 0 0 1 128 903.296V499.584c0-66.56 54.08-120.704 120.64-120.704h526.656c66.56 0 120.704 54.144 120.704 120.704v403.776A120.832 120.832 0 0 1 775.296 1024zM248.64 447.168a52.48 52.48 0 0 0-52.352 52.416v403.776a52.48 52.48 0 0 0 52.352 52.416h526.656a52.48 52.48 0 0 0 52.416-52.416V499.584a52.48 52.48 0 0 0-52.416-52.416H248.64zM512 864.384a95.04 95.04 0 0 1-94.912-92.416A136.128 136.128 0 0 1 512 538.56c75.008 0 136.064 61.056 136.064 136 0 36.864-15.168 72.192-41.344 97.6-2.88 52.736-44.288 92.224-94.72 92.224zM512 606.72a67.84 67.84 0 0 0-39.936 122.56 34.048 34.048 0 0 1 13.568 32.704l-0.32 7.488a26.752 26.752 0 0 0 53.376 0c-1.92-12.608 3.008-32.704 13.312-40.192A67.904 67.904 0 0 0 512 606.72z" fill="#31A720" p-id="56840"></path><path d="M753.216 431.744a34.112 34.112 0 0 1-34.112-34.112V244.608c0-97.856-88-176.384-196.16-176.384S326.784 146.752 326.784 243.2v151.552a34.112 34.112 0 0 1-68.288 0V244.608C258.496 109.12 377.088 0 522.88 0c145.856 0 264.384 109.12 264.384 243.264v154.368a34.048 34.048 0 0 1-34.048 34.112z" fill="#31A720" p-id="56841"></path></svg>