<?xml version="1.0" standalone="no"?><!DOCTYPE svg PUBLIC "-//W3C//DTD SVG 1.1//EN" "http://www.w3.org/Graphics/SVG/1.1/DTD/svg11.dtd"><svg t="1557474101653" class="icon" style="" viewBox="0 0 1024 1024" version="1.1" xmlns="http://www.w3.org/2000/svg" p-id="4887" xmlns:xlink="http://www.w3.org/1999/xlink" width="64" height="64"><defs><style type="text/css"></style></defs><path d="M83.2 538.5c-17.7 0-32-13.4-32-29.8 0-16.5 14.4-29.8 32-29.8h859.1c17.7 0 32 13.4 32 29.8 0 16.5-14.4 29.8-32 29.8H83.2zM111.8 352.8C97 352.8 85 340.8 85 326V169.4c0-48.8 39.7-88.5 88.5-88.5h216.3c14.8 0 26.8 12 26.8 26.8s-12 26.8-26.8 26.8H173.5c-19.2 0-34.8 15.6-34.8 34.8v156.5c0 14.9-12.1 27-26.9 27zM173.5 936.4c-48.8 0-88.5-39.7-88.5-88.5v-152C85 681 97 669 111.8 669s26.8 12 26.8 26.8v152c0 19.2 15.6 34.8 34.8 34.8h216.3c14.8 0 26.8 12 26.8 26.8s-12 26.8-26.8 26.8H173.5zM637.1 936.4c-14.8 0-26.8-12-26.8-26.8s12-26.8 26.8-26.8H852c19.2 0 34.8-15.6 34.8-34.8V696c0-14.8 12-26.8 26.8-26.8s26.8 12 26.8 26.8v152c0 48.8-39.7 88.5-88.5 88.5H637.1zM913.7 352.8c-14.8 0-26.8-12-26.8-26.8V169.4c0-19.2-15.6-34.8-34.8-34.8h-215c-14.8 0-26.8-12-26.8-26.8s12-26.8 26.8-26.8H852c48.8 0 88.5 39.7 88.5 88.5V326c0 14.7-12 26.8-26.8 26.8z" p-id="4888" fill="#ffffff"></path><path d="M245.7 445.1c-12.7 0-23-11.3-23-25.2V285.7c0-13.9 10.3-25.2 23-25.2s23 11.3 23 25.2v134.2c-0.1 13.9-10.4 25.2-23 25.2zM352.5 445.1c-12.7 0-23-11.3-23-25.2V285.7c0-13.9 10.3-25.2 23-25.2s23 11.3 23 25.2v134.2c0 13.9-10.3 25.2-23 25.2zM459.3 445.1c-12.7 0-23-11.3-23-25.2V285.7c0-13.9 10.3-25.2 23-25.2s23 11.3 23 25.2v134.2c0 13.9-10.3 25.2-23 25.2zM566.2 445.1c-12.7 0-23-11.3-23-25.2V285.7c0-13.9 10.3-25.2 23-25.2s23 11.3 23 25.2v134.2c-0.1 13.9-10.4 25.2-23 25.2zM673 445.1c-12.7 0-23-11.3-23-25.2V285.7c0-13.9 10.3-25.2 23-25.2s23 11.3 23 25.2v134.2c0 13.9-10.3 25.2-23 25.2zM779.8 445.1c-12.7 0-23-11.3-23-25.2V285.7c0-13.9 10.3-25.2 23-25.2s23 11.3 23 25.2v134.2c0 13.9-10.3 25.2-23 25.2z" p-id="4889" fill="#ffffff"></path><path d="M245.7 756.8c-12.7 0-23-11.3-23-25.2V597.4c0-13.9 10.3-25.2 23-25.2s23 11.3 23 25.2v134.2c-0.1 13.9-10.4 25.2-23 25.2z" p-id="4890" fill="#ffffff"></path><path d="M245.7 755.8c-12.1 0-22-10.9-22-24.2V597.4c0-13.3 9.9-24.2 22-24.2s22 10.9 22 24.2v134.2c-0.1 13.3-9.9 24.2-22 24.2zM352.5 755.8c-12.1 0-22-10.9-22-24.2V597.4c0-13.3 9.9-24.2 22-24.2s22 10.9 22 24.2v134.2c0 13.3-9.9 24.2-22 24.2zM459.3 755.8c-12.1 0-22-10.9-22-24.2V597.4c0-13.3 9.9-24.2 22-24.2s22 10.9 22 24.2v134.2c0 13.3-9.8 24.2-22 24.2zM566.2 755.8c-12.1 0-22-10.9-22-24.2V597.4c0-13.3 9.9-24.2 22-24.2s22 10.9 22 24.2v134.2c-0.1 13.3-9.9 24.2-22 24.2zM673 755.8c-12.1 0-22-10.9-22-24.2V597.4c0-13.3 9.9-24.2 22-24.2s22 10.9 22 24.2v134.2c0 13.3-9.9 24.2-22 24.2zM779.8 755.8c-12.1 0-22-10.9-22-24.2V597.4c0-13.3 9.9-24.2 22-24.2s22 10.9 22 24.2v134.2c0 13.3-9.8 24.2-22 24.2z" p-id="4891" fill="#ffffff"></path></svg>