<?xml version="1.0" standalone="no"?><!DOCTYPE svg PUBLIC "-//W3C//DTD SVG 1.1//EN" "http://www.w3.org/Graphics/SVG/1.1/DTD/svg11.dtd"><svg t="1556972561288" class="icon" style="" viewBox="0 0 1024 1024" version="1.1" xmlns="http://www.w3.org/2000/svg" p-id="1883" xmlns:xlink="http://www.w3.org/1999/xlink" width="64" height="64"><defs><style type="text/css"></style></defs><path d="M842.602092 393.074424c51.941999 0 94.225011 42.281989 94.225011 94.225011 0 140.92359-23.372314 258.842233-67.587328 340.946182-22.406313 41.520649-49.873897 73.727165-81.712023 95.788623-32.94125 22.842241-69.839625 34.390251-109.821221 34.390251L442.143491 958.424492c-5.15337 0-33.079396-1.471514-73.429383-29.860075-51.437509-36.18513-99.929943-99.377358-144.143934-187.713242C130.759601 553.251519 100.670306 491.670999 99.288842 488.818021c-22.773679-45.64048-6.487761-103.564727 36.254715-129.190361 20.888749-12.515035 45.364187-15.920598 68.87567-9.525957 24.108071 6.579859 44.213991 22.499433 56.45171 44.905746l63.446008 109.913319L324.316945 157.556409c0-51.988048 42.280966-94.223988 94.223988-94.223988 51.944046 0 94.225011 42.23594 94.225011 94.223988l0 154.037259c13.849426-8.097422 29.997198-12.698207 47.114041-12.698207 41.038672 0 76.004021 26.408463 88.887446 63.077617 15.044648-10.076496 33.034371-15.9646 52.449559-15.9646 41.039695 0 76.006068 26.40744 88.887446 63.077617 15.046694-10.076496 33.034371-15.965623 52.449559-15.965623L842.602092 393.074424zM827.740616 806.022477c40.534182-75.292823 61.974493-185.483458 61.974493-318.630944 0-25.947975-21.165042-47.113017-47.113017-47.113017s-47.111994 21.165042-47.111994 47.113017l0 23.556509c0 12.997012-10.538007 23.556509-23.556509 23.556509-13.022595 0-23.557532-10.558473-23.557532-23.556509l0-70.669526c0-25.946952-21.165042-47.113017-47.113017-47.113017s-47.113017 21.166065-47.113017 47.113017l0 23.556509c0 12.997012-10.534937 23.557532-23.555485 23.557532s-23.557532-10.559497-23.557532-23.557532l0-70.669526c0-25.947975-21.164019-47.111994-47.111994-47.111994-25.948999 0-47.111994 21.164019-47.111994 47.111994l0 70.669526c0 12.997012-10.583033 23.557532-23.557532 23.557532-12.975523 0-23.556509-10.559497-23.556509-23.557532L465.698976 157.604504c0-25.948999-21.164019-47.113017-47.114041-47.113017-25.946952 0-47.111994 21.164019-47.111994 47.113017l0 368.042307c0 31.469736-9.293667 49.850361-27.650757 54.497195-18.356067 4.669346-35.241642-6.855128-50.28629-34.32169l-73.522504-127.443577c-0.092098-0.138146-0.184195-0.321318-0.276293-0.505513-6.074346-11.088546-15.919575-19.000749-27.696806-22.176069-10.996448-2.991124-22.452361-1.471514-32.252565 4.41659-21.762653 13.065574-30.135344 44.121893-18.312064 67.815525 0.046049 0.046049 0.046049 0.093121 0.093121 0.184195 0.276293 0.575098 29.628808 60.731176 125.096113 251.735371 48.676629 97.422843 94.502327 144.44274 124.314307 166.779468 29.9051 22.382776 49.780777 24.591071 51.574632 24.729218l235.103576 0c77.110215 0 124.222209-57.280588 150.07911-105.381096L827.736523 806.022477z" p-id="1884" fill="#999999"></path></svg>