<?xml version="1.0" standalone="no"?><!DOCTYPE svg PUBLIC "-//W3C//DTD SVG 1.1//EN" "http://www.w3.org/Graphics/SVG/1.1/DTD/svg11.dtd"><svg t="1553080529888" class="icon" style="" viewBox="0 0 1024 1024" version="1.1" xmlns="http://www.w3.org/2000/svg" p-id="4988" xmlns:xlink="http://www.w3.org/1999/xlink" width="128" height="128"><defs><style type="text/css"></style></defs><path d="M883.008 1024 204.992 1024C121.984 1024 64 957.376 64 862.016L64 164.032C64 67.456 121.984 0 204.992 0l678.016 0C901.056 0 960 7.232 960 100.032l0 825.984C960 1014.464 906.112 1024 883.008 1024zM204.992 64C148.16 64 128 117.888 128 164.032l0 697.984C128 907.2 148.16 960 204.992 960l678.016 0C887.232 960 896 960 896 926.016L896 100.032C896 76.096 891.648 64 883.008 64L204.992 64z" p-id="4989" fill="#31a720"></path><path d="M128 896 64 896c0-128 57.984-192 140.992-192l678.016 0C901.056 704 960 704 960 832l-64 0c0-64-4.352-64-12.992-64L204.992 768C148.16 768 128 832 128 896z" p-id="4990" fill="#31a720"></path><path d="M568.192 426.688c-2.432 0-4.928-0.32-7.36-1.088C550.016 422.4 542.592 412.416 542.592 401.152L542.592 38.784c0-14.144 11.52-25.6 25.6-25.6l228.992 0c14.144 0 25.6 11.456 25.6 25.6l0 358.976c0 11.136-7.168 20.992-17.792 24.384-10.56 3.328-22.208-0.384-28.608-9.472l-96.576-134.656-90.24 137.152C584.768 422.528 576.64 426.688 568.192 426.688zM678.912 207.232c8.256 0 16 3.968 20.8 10.688l71.808 100.224L771.52 64.384 593.792 64.384l0 251.264 63.744-96.896c4.608-7.04 12.416-11.392 20.864-11.52C678.656 207.232 678.72 207.232 678.912 207.232z" p-id="4991" fill="#31a720"></path></svg>