<?xml version="1.0" standalone="no"?><!DOCTYPE svg PUBLIC "-//W3C//DTD SVG 1.1//EN" "http://www.w3.org/Graphics/SVG/1.1/DTD/svg11.dtd"><svg t="1557195626732" class="icon" style="" viewBox="0 0 1243 1024" version="1.1" xmlns="http://www.w3.org/2000/svg" p-id="2219" xmlns:xlink="http://www.w3.org/1999/xlink" width="77.6875" height="64"><defs><style type="text/css"></style></defs><path d="M839.68 323.584c13.312 0 26.624 1.243429 39.862857 2.413714-35.620571-166.619429-214.308571-291.108571-417.865143-291.108571C234.057143 35.693714 47.542857 190.756571 47.542857 387.657143c0 113.517714 62.171429 207.140571 165.449143 279.625143l-41.691429 124.342857 144.969143-72.411429c51.931429 10.24 93.622857 20.48 144.896 20.48 13.312 0 25.965714-0.585143 38.619429-1.755428a318.610286 318.610286 0 0 1-12.653714-87.04c0.585143-180.516571 155.794286-327.241143 352.621714-327.241143zM616.886857 211.382857c31.451429 0 51.931429 20.48 51.931429 51.931429 0 30.72-20.48 51.931429-51.931429 51.931428-30.793143 0-62.171429-20.553143-62.171428-51.931428 0-31.451429 31.378286-51.931429 62.171428-51.931429z m-289.865143 103.862857c-30.72 0-62.171429-20.553143-62.171428-51.931428 0-31.451429 31.451429-51.931429 62.171428-51.931429 30.793143 0 51.931429 20.48 51.931429 51.931429 0 30.72-20.48 51.931429-51.931429 51.931428zM1217.828571 646.582857c0-165.449143-165.449143-300.690286-352.109714-300.690286-196.827429 0-352.036571 135.241143-352.036571 300.690286 0 166.034286 155.209143 300.763429 352.036571 300.763429 41.106286 0 82.797714-10.24 124.416-20.553143l113.517714 62.171428-31.378285-103.277714c83.382857-63.341714 145.554286-146.139429 145.554285-239.104z m-466.212571-51.931428c-20.48 0-41.691429-20.48-41.691429-41.691429 0-20.48 21.211429-41.691429 41.691429-41.691429 31.451429 0 51.931429 20.553143 51.931429 41.691429 0 21.211429-20.48 41.691429-51.931429 41.691429z m227.693714 0c-20.553143 0-41.106286-20.48-41.106285-41.691429 0-20.48 20.48-41.691429 41.106285-41.691429 31.378286 0 51.931429 20.553143 51.931429 41.691429 0 21.211429-20.553143 41.691429-51.931429 41.691429z" fill="#00cc66" p-id="2220"></path></svg>